# xmcd
#
# Track frame offsets:
# 180
# 21739
# 34843
# 48680
# 62387
# 76228
# 88843
# 103002
# 115961
# 132831
# 146520
# 160585
# 174540
#
# Disc length: 2799 seconds
#
# Revision: 0
# Processed by: cddbd v1.5.1PL2 Copyright (c) Steve Scherf et al.
# Submitted via: Audion 3.0.2 (http://www.panic.com/audion/)
#
DISCID=ae0aed0d
DTITLE=Barbarito Diez - El Señor Del Danzon
DYEAR=1900
DGENRE=
TTITLE0=Caballo Viejo-Simon Diaz
TTITLE1=Desvelo De amor-Rafael Hernandez
TTITLE2=Junto Al Palmar Del Rio-Pedro Flores
TTITLE3=Blancas Azucenas-Pedro Flores
TTITLE4=La Mora-Eliceo Grenet
TTITLE5=Dos Letras-Rafael Hernandez
TTITLE6=La Cumbancha-Agustin Lara
TTITLE7=La Sitiera-Rafael Lopez
TTITLE8=Tu No Me comprendes-Rafael Hernandez
TTITLE9=Lamento Borincano-Rafael Hernandez
TTITLE10=Te Quiero dijistes-Maria Grever
TTITLE11=Si Tu Supieras-Ernesto Lecuona
TTITLE12=Ensalada Cubana-Varios
EXTD=
EXTT0=
EXTT1=
EXTT2=
EXTT3=
EXTT4=
EXTT5=
EXTT6=
EXTT7=
EXTT8=
EXTT9=
EXTT10=
EXTT11=
EXTT12=
PLAYORDER=
